<svg id="Layer_1" data-name="Layer 1" xmlns="http://www.w3.org/2000/svg" viewBox="0 0 512 512"><defs><style>.cls-1{fill:#d1e1e8;}.cls-2{fill:#141f38;}.cls-3{fill:#5ecaef;}.cls-4{fill:#f9c882;}.cls-5{fill:#3eb38a;}.cls-6{fill:#fff;}.cls-7{fill:#ff5f6e;}</style></defs><title>notebook-chat-filled</title><path class="cls-1" d="M216.62,387.28,190.36,361H13.13a6.56,6.56,0,0,0-6.56,6.56v13.13a59.08,59.08,0,0,0,59.08,59.08H446.36a59.08,59.08,0,0,0,59.08-59.08V367.59a6.56,6.56,0,0,0-6.56-6.56H321.64l-26.26,26.26Z"/><path class="cls-2" d="M446.36,446.36H65.64A65.72,65.72,0,0,1,0,380.72V367.59a13.14,13.14,0,0,1,13.13-13.13H193.08l26.26,26.26h73.33l26.26-26.26H498.87A13.14,13.14,0,0,1,512,367.59v13.13A65.72,65.72,0,0,1,446.36,446.36ZM13.13,367.59v13.13a52.57,52.57,0,0,0,52.51,52.51H446.36a52.57,52.57,0,0,0,52.51-52.51V367.59H324.36L298.1,393.85H213.9l-26.26-26.26Z"/><path class="cls-3" d="M190.36,361l26.26,26.26h78.77L321.64,361H479.18V137.85a65.64,65.64,0,0,0-65.64-65.64H98.46a65.64,65.64,0,0,0-65.64,65.64V361Z"/><path class="cls-2" d="M295.38,393.85H216.62a6.56,6.56,0,0,1-4.64-1.92l-24.33-24.33H32.82A6.56,6.56,0,0,1,26.26,361V137.85A72.29,72.29,0,0,1,98.46,65.64H413.54a72.29,72.29,0,0,1,72.21,72.21V361a6.56,6.56,0,0,1-6.56,6.56H324.36L300,391.92A6.56,6.56,0,0,1,295.38,393.85Zm-76.05-13.13h73.33L317,356.38a6.56,6.56,0,0,1,4.64-1.92h151V137.85a59.14,59.14,0,0,0-59.08-59.08H98.46a59.14,59.14,0,0,0-59.08,59.08V354.46h151a6.56,6.56,0,0,1,4.64,1.92Z"/><path class="cls-4" d="M387.28,190.36H216.62a26.26,26.26,0,0,1-26.26-26.26h0a26.26,26.26,0,0,1,26.26-26.26H387.28a26.26,26.26,0,0,1,26.26,26.26h0A26.26,26.26,0,0,1,387.28,190.36Z"/><path class="cls-2" d="M387.28,196.92H216.62a32.82,32.82,0,1,1,0-65.64H387.28a32.82,32.82,0,1,1,0,65.64ZM216.62,144.41a19.69,19.69,0,1,0,0,39.38H387.28a19.69,19.69,0,1,0,0-39.38Z"/><path class="cls-5" d="M295.38,295.38H124.72a26.26,26.26,0,0,1-26.26-26.26h0a26.26,26.26,0,0,1,26.26-26.26H295.38a26.26,26.26,0,0,1,26.26,26.26h0A26.26,26.26,0,0,1,295.38,295.38Z"/><path class="cls-2" d="M295.38,301.95H124.72a32.82,32.82,0,1,1,0-65.64H295.38a32.82,32.82,0,1,1,0,65.64ZM124.72,249.44a19.69,19.69,0,1,0,0,39.38H295.38a19.69,19.69,0,0,0,0-39.38Z"/><circle class="cls-6" cx="124.72" cy="164.1" r="26.26"/><path class="cls-2" d="M124.72,196.92a32.82,32.82,0,1,1,32.82-32.82A32.86,32.86,0,0,1,124.72,196.92Zm0-52.51a19.69,19.69,0,1,0,19.69,19.69A19.71,19.71,0,0,0,124.72,144.41Z"/><circle class="cls-7" cx="387.28" cy="269.13" r="26.26"/><path class="cls-2" d="M387.28,301.95a32.82,32.82,0,1,1,32.82-32.82A32.86,32.86,0,0,1,387.28,301.95Zm0-52.51A19.69,19.69,0,1,0,407,269.13,19.71,19.71,0,0,0,387.28,249.44Z"/></svg>