<svg width="88" height="24" viewBox="0 0 88 24" fill="none" xmlns="http://www.w3.org/2000/svg">
<path d="M19 7H16V5.5C16 4.83696 15.7366 4.20107 15.2678 3.73223C14.7989 3.26339 14.163 3 13.5 3H10.5C9.83696 3 9.20107 3.26339 8.73223 3.73223C8.26339 4.20107 8 4.83696 8 5.5V7H5C4.20435 7 3.44129 7.31607 2.87868 7.87868C2.31607 8.44129 2 9.20435 2 10V18C2 18.7956 2.31607 19.5587 2.87868 20.1213C3.44129 20.6839 4.20435 21 5 21H19C19.7956 21 20.5587 20.6839 21.1213 20.1213C21.6839 19.5587 22 18.7956 22 18V10C22 9.20435 21.6839 8.44129 21.1213 7.87868C20.5587 7.31607 19.7956 7 19 7ZM10 5.5C10 5.36739 10.0527 5.24021 10.1464 5.14645C10.2402 5.05268 10.3674 5 10.5 5H13.5C13.6326 5 13.7598 5.05268 13.8536 5.14645C13.9473 5.24021 14 5.36739 14 5.5V7H10V5.5ZM20 18C20 18.2652 19.8946 18.5196 19.7071 18.7071C19.5196 18.8946 19.2652 19 19 19H5C4.73478 19 4.48043 18.8946 4.29289 18.7071C4.10536 18.5196 4 18.2652 4 18V10C4 9.73478 4.10536 9.48043 4.29289 9.29289C4.48043 9.10536 4.73478 9 5 9H19C19.2652 9 19.5196 9.10536 19.7071 9.29289C19.8946 9.48043 20 9.73478 20 10V18Z" fill="#787878"/>
<path d="M12 10.5C11.3078 10.5 10.6311 10.7053 10.0555 11.0899C9.47993 11.4744 9.03133 12.0211 8.76642 12.6606C8.50152 13.3001 8.4322 14.0039 8.56725 14.6828C8.7023 15.3618 9.03564 15.9854 9.52513 16.4749C10.0146 16.9644 10.6383 17.2977 11.3172 17.4327C11.9961 17.5678 12.6999 17.4985 13.3394 17.2336C13.9789 16.9687 14.5256 16.5201 14.9101 15.9445C15.2947 15.3689 15.5 14.6922 15.5 14C15.5 13.0717 15.1313 12.1815 14.4749 11.5251C13.8185 10.8687 12.9283 10.5 12 10.5ZM12 15.5C11.7033 15.5 11.4133 15.412 11.1666 15.2472C10.92 15.0824 10.7277 14.8481 10.6142 14.574C10.5007 14.2999 10.4709 13.9983 10.5288 13.7074C10.5867 13.4164 10.7296 13.1491 10.9393 12.9393C11.1491 12.7296 11.4164 12.5867 11.7074 12.5288C11.9983 12.4709 12.2999 12.5006 12.574 12.6142C12.8481 12.7277 13.0824 12.92 13.2472 13.1666C13.412 13.4133 13.5 13.7033 13.5 14C13.5 14.3978 13.342 14.7794 13.0607 15.0607C12.7794 15.342 12.3978 15.5 12 15.5Z" fill="#787878"/>
<path d="M50 3H38C37.2044 3 36.4413 3.31607 35.8787 3.87868C35.3161 4.44129 35 5.20435 35 6V18C35 18.7956 35.3161 19.5587 35.8787 20.1213C36.4413 20.6839 37.2044 21 38 21H50C50.7956 21 51.5587 20.6839 52.1213 20.1213C52.6839 19.5587 53 18.7956 53 18V6C53 5.20435 52.6839 4.44129 52.1213 3.87868C51.5587 3.31607 50.7956 3 50 3ZM38 5H50C50.2652 5 50.5196 5.10536 50.7071 5.29289C50.8946 5.48043 51 5.73478 51 6V14.36L47.8 11.63C47.3042 11.222 46.6821 10.999 46.04 10.999C45.3979 10.999 44.7758 11.222 44.28 11.63L37 17.7V6C37 5.73478 37.1054 5.48043 37.2929 5.29289C37.4804 5.10536 37.7348 5 38 5ZM50 19H38.56L45.56 13.16C45.6945 13.0602 45.8575 13.0062 46.025 13.0062C46.1925 13.0062 46.3555 13.0602 46.49 13.16L51 17V18C51 18.2652 50.8946 18.5196 50.7071 18.7071C50.5196 18.8946 50.2652 19 50 19Z" fill="#787878"/>
<path d="M40 10C40.8284 10 41.5 9.32843 41.5 8.5C41.5 7.67157 40.8284 7 40 7C39.1716 7 38.5 7.67157 38.5 8.5C38.5 9.32843 39.1716 10 40 10Z" fill="#787878"/>
<path d="M76 15C77.0609 15 78.0783 14.5786 78.8284 13.8284C79.5786 13.0783 80 12.0609 80 11V6C80 4.93913 79.5786 3.92172 78.8284 3.17157C78.0783 2.42143 77.0609 2 76 2C74.9391 2 73.9217 2.42143 73.1716 3.17157C72.4214 3.92172 72 4.93913 72 6V11C72 12.0609 72.4214 13.0783 73.1716 13.8284C73.9217 14.5786 74.9391 15 76 15ZM74 6C74 5.46957 74.2107 4.96086 74.5858 4.58579C74.9609 4.21071 75.4696 4 76 4C76.5304 4 77.0391 4.21071 77.4142 4.58579C77.7893 4.96086 78 5.46957 78 6V11C78 11.5304 77.7893 12.0391 77.4142 12.4142C77.0391 12.7893 76.5304 13 76 13C75.4696 13 74.9609 12.7893 74.5858 12.4142C74.2107 12.0391 74 11.5304 74 11V6Z" fill="#787878"/>
<path d="M83 11C83 10.7348 82.8946 10.4804 82.7071 10.2929C82.5196 10.1054 82.2652 10 82 10C81.7348 10 81.4804 10.1054 81.2929 10.2929C81.1054 10.4804 81 10.7348 81 11C81 12.3261 80.4732 13.5979 79.5355 14.5355C78.5979 15.4732 77.3261 16 76 16C74.6739 16 73.4021 15.4732 72.4645 14.5355C71.5268 13.5979 71 12.3261 71 11C71 10.7348 70.8946 10.4804 70.7071 10.2929C70.5196 10.1054 70.2652 10 70 10C69.7348 10 69.4804 10.1054 69.2929 10.2929C69.1054 10.4804 69 10.7348 69 11C69.002 12.6818 69.6094 14.3068 70.7112 15.5775C71.813 16.8482 73.3354 17.6797 75 17.92V20H72.89C72.654 20 72.4276 20.0938 72.2607 20.2607C72.0938 20.4276 72 20.654 72 20.89V21.11C72 21.346 72.0938 21.5724 72.2607 21.7393C72.4276 21.9062 72.654 22 72.89 22H79.11C79.346 22 79.5724 21.9062 79.7393 21.7393C79.9062 21.5724 80 21.346 80 21.11V20.89C80 20.654 79.9062 20.4276 79.7393 20.2607C79.5724 20.0938 79.346 20 79.11 20H77V17.92C78.6646 17.6797 80.187 16.8482 81.2888 15.5775C82.3906 14.3068 82.998 12.6818 83 11Z" fill="#787878"/>
</svg>
