<svg width="20" height="16" viewBox="0 0 20 16" fill="none" xmlns="http://www.w3.org/2000/svg">
<path d="M6.57333 12C6.48192 11.9997 6.39154 11.9806 6.30782 11.9439C6.2241 11.9072 6.14882 11.8537 6.08666 11.7867L2.84666 8.34C2.72555 8.21093 2.66067 8.03903 2.66629 7.86212C2.67192 7.68521 2.74759 7.51778 2.87666 7.39667C3.00573 7.27555 3.17763 7.21067 3.35454 7.2163C3.53145 7.22192 3.69888 7.2976 3.82 7.42667L6.56666 10.3533L12.1733 4.22C12.2302 4.14915 12.301 4.09068 12.3813 4.04818C12.4616 4.00568 12.5498 3.98004 12.6404 3.97285C12.731 3.96566 12.8221 3.97707 12.9081 4.00637C12.9941 4.03567 13.0732 4.08224 13.1406 4.14323C13.2079 4.20422 13.2621 4.27834 13.2998 4.36103C13.3375 4.44372 13.3579 4.53324 13.3597 4.62409C13.3615 4.71495 13.3447 4.80521 13.3104 4.88934C13.276 4.97347 13.2249 5.0497 13.16 5.11333L7.06666 11.78C7.00509 11.8482 6.93007 11.903 6.84632 11.9409C6.76257 11.9787 6.6719 11.9989 6.58 12H6.57333Z" fill="#00BB29"/>
<path d="M10.5733 12C10.4819 11.9997 10.3915 11.9806 10.3078 11.9439C10.2241 11.9072 10.1488 11.8537 10.0867 11.7867L6.84666 8.34C6.72555 8.21093 6.66067 8.03903 6.66629 7.86212C6.67192 7.68521 6.74759 7.51778 6.87666 7.39667C7.00573 7.27555 7.17763 7.21067 7.35454 7.2163C7.53145 7.22192 7.69888 7.2976 7.82 7.42667L10.5667 10.3533L16.1733 4.22C16.2302 4.14915 16.301 4.09068 16.3813 4.04818C16.4616 4.00568 16.5498 3.98004 16.6404 3.97285C16.731 3.96566 16.8221 3.97707 16.9081 4.00637C16.9941 4.03567 17.0732 4.08224 17.1406 4.14323C17.2079 4.20422 17.2621 4.27834 17.2998 4.36103C17.3375 4.44372 17.3579 4.53324 17.3597 4.62409C17.3615 4.71495 17.3447 4.80521 17.3104 4.88934C17.276 4.97347 17.2249 5.0497 17.16 5.11333L11.0667 11.78C11.0051 11.8482 10.9301 11.903 10.8463 11.9409C10.7626 11.9787 10.6719 11.9989 10.58 12H10.5733Z" fill="#00BB29"/>
</svg>
